HIERARCHY
ROOT hip
{
	OFFSET 0.000000 0.000000 0.000000 
	CHANNELS 6 Xposition Yposition Zposition Xrotation Zrotation Yrotation
	JOINT abdomen
	{
		OFFSET 0.000000 3.402643 0.000000 
		CHANNELS 3 Xrotation Zrotation Yrotation
		JOINT chest
		{
			OFFSET 0.000000 8.438565 -0.680529 
			CHANNELS 3 Xrotation Zrotation Yrotation
			JOINT neck
			{
				OFFSET 0.000000 10.207942 -0.272212 
				CHANNELS 3 Xrotation Zrotation Yrotation
				JOINT head
				{
					OFFSET 0.000000 3.130431 0.000000 
					CHANNELS 3 Xrotation Zrotation Yrotation
					End Site
					{
						OFFSET 0.000000 3.130435 0.000000 
					}
				}
			}
			JOINT lCollar
			{
				OFFSET 3.470700 6.669187 -0.816635 
				CHANNELS 3 Yrotation Zrotation Xrotation
				JOINT lShldr
				{
					OFFSET 3.198488 0.000000 0.000000 
					CHANNELS 3 Zrotation Yrotation Xrotation
					JOINT lForeArm
					{
						OFFSET 10.139888 0.000000 0.000000 
						CHANNELS 3 Yrotation Zrotation Xrotation
						JOINT lHand
						{
							OFFSET 8.370511 0.000000 0.000000 
							CHANNELS 3 Zrotation Yrotation Xrotation
							End Site
							{
								OFFSET 4.083176 0.000000 0.000000 
							}
						}
					}
				}
			}
			JOINT rCollar
			{
				OFFSET -3.470700 6.669187 -0.816635 
				CHANNELS 3 Yrotation Zrotation Xrotation
				JOINT rShldr
				{
					OFFSET -3.198488 0.000000 0.000000 
					CHANNELS 3 Zrotation Yrotation Xrotation
					JOINT rForeArm
					{
						OFFSET -10.139888 0.000000 0.000000 
						CHANNELS 3 Yrotation Zrotation Xrotation
						JOINT rHand
						{
							OFFSET -8.370511 0.000000 0.000000 
							CHANNELS 3 Zrotation Yrotation Xrotation
							End Site
							{
								OFFSET -4.083176 0.000000 0.000000 
							}
						}
					}
				}
			}
		}
	}
	JOINT lThigh
	{
		OFFSET 5.308129 -1.633274 1.361059 
		CHANNELS 3 Xrotation Zrotation Yrotation
		JOINT lShin
		{
			OFFSET -2.041588 -20.007561 0.000000 
			CHANNELS 3 Xrotation Zrotation Yrotation
			JOINT lFoot
			{
				OFFSET 0.000000 -19.190928 -1.224953 
				CHANNELS 3 Xrotation Yrotation Zrotation
				End Site
				{
					OFFSET 0.000000 -2.449906 4.627600 
				}
			}
		}
	}
	JOINT rThigh
	{
		OFFSET -5.308129 -1.633274 1.361059 
		CHANNELS 3 Xrotation Zrotation Yrotation
		JOINT rShin
		{
			OFFSET 2.041588 -20.007561 0.000000 
			CHANNELS 3 Xrotation Zrotation Yrotation
			JOINT rFoot
			{
				OFFSET 0.000000 -19.190928 -1.224953 
				CHANNELS 3 Xrotation Yrotation Zrotation
				End Site
				{
					OFFSET 0.000000 -2.449906 4.627600 
				}
			}
		}
	}
}
MOTION
Frames: 11
Frame Time: 0.016667
-0.479968 52.827770 0.041639 -9.952406 1.689178 -1.035570 28.555559 -1.880497 0.321954 -1.411738 1.162009 -1.162153 -6.367114 2.705312 -0.201514 13.830627 -3.775565 4.844046 -13.397661 -10.398668 -0.539285 -58.480011 18.304640 -21.392633 -30.572617 -5.000000 25.205437 -27.209305 3.060949 26.280220 0.154256 12.787898 -0.680029 59.975548 -4.810210 -7.954265 19.806660 5.000000 34.248238 19.638962 -8.137385 1.360849 20.904989 8.847220 8.510238 -0.519127 -4.603644 -0.100777 -8.258734 8.446043 -6.621526 18.894100 -11.960490 2.013909 0.674115 2.265363 0.037432 -5.805026 -15.451218 8.434051 
-0.475886 52.830170 0.032866 -9.944374 1.659843 -1.113663 28.535797 -1.881737 0.353735 -1.381354 1.122958 -1.093802 -6.367218 2.734279 -0.206358 13.706062 -3.689184 4.618654 -13.446677 -10.418173 -0.540289 -58.622932 18.231564 -21.471582 -30.524279 -5.000000 25.113821 -27.147001 3.039591 26.301207 0.106264 12.856171 -0.683558 59.935970 -4.620742 -7.735822 19.519501 5.000000 34.096203 19.552015 -8.112510 1.453690 20.926079 8.828508 8.575377 -0.556472 -4.589046 -0.079317 -7.921103 8.464719 -6.651776 18.835260 -11.950735 1.898273 0.712136 2.233191 0.039667 -5.777874 -15.282286 8.502047 
-0.469173 52.831127 0.020991 -9.934513 1.669612 -1.103901 28.545677 -1.890400 0.350328 -1.361388 1.103430 -1.074275 -6.347292 2.755051 -0.199165 13.588456 -3.622118 4.403011 -13.486307 -10.476686 -0.543303 -58.753040 18.143318 -21.539061 -30.498215 -5.000000 25.029968 -27.019611 3.023064 26.191568 0.094860 12.904948 -0.676559 59.908600 -4.452883 -7.538738 19.190779 5.000000 33.912472 19.474127 -8.167036 1.506133 20.904797 8.827945 8.575222 -0.568568 -4.607249 -0.077359 -7.709732 8.425262 -6.671018 18.817572 -11.932606 1.743736 0.711518 2.192350 0.040141 -5.763405 -15.138637 8.555089 
-0.460706 52.831127 0.007045 -9.933163 1.689172 -1.045331 28.545427 -1.929638 0.345106 -1.360960 1.083903 -1.064512 -6.308229 2.755051 -0.199165 13.487728 -3.584180 4.187371 -13.526227 -10.564457 -0.549613 -58.893642 18.042929 -21.611187 -30.485235 -5.000000 24.962631 -26.841051 3.027487 26.011503 0.105219 12.953709 -0.679080 59.892078 -4.296990 -7.346045 18.814762 5.000000 33.721664 19.394379 -8.285747 1.536982 20.850700 8.826519 8.544958 -0.548316 -4.600513 -0.108319 -7.607244 8.349013 -6.701440 18.821232 -11.918643 1.565804 0.711404 2.161504 0.030739 -5.768290 -15.050312 8.520050 
-0.451423 52.831367 -0.005765 -9.931353 1.718505 -0.966948 28.555210 -1.962017 0.321597 -1.350955 1.064373 -1.074279 -6.269167 2.755051 -0.199165 13.386786 -3.536385 3.982089 -13.566058 -10.642474 -0.553642 -59.040318 17.942036 -21.672947 -30.469484 -5.000000 24.900305 -26.675756 3.024948 25.826557 0.125227 12.992716 -0.681097 59.886868 -4.149605 -7.171699 18.436632 5.000000 33.527203 19.323200 -8.398692 1.577716 20.828819 8.799298 8.486845 -0.556533 -4.619426 -0.117664 -7.521379 8.363412 -6.676728 18.847418 -11.923590 1.405465 0.701777 2.133884 0.040282 -5.754938 -14.987339 8.526859 
-0.438872 52.832569 -0.014035 -9.938922 1.786908 -0.859566 28.564217 -2.020585 0.308619 -1.321538 1.054608 -1.074279 -6.240230 2.724623 -0.204433 13.294718 -3.478698 3.795700 -13.586458 -10.730243 -0.558174 -59.204838 17.820333 -21.737093 -30.449615 -5.000000 24.881300 -26.524826 2.973428 25.600857 0.193945 13.021972 -0.682610 59.896667 -4.048574 -7.060586 18.043211 5.000000 33.349262 19.236721 -8.557701 1.635791 20.783216 8.797640 8.376885 -0.558707 -4.648661 -0.116211 -7.479617 8.313257 -6.670678 18.892721 -11.949507 1.317211 0.681619 2.109701 0.049223 -5.773953 -14.998595 8.519874 
-0.426322 52.833771 -0.022301 -9.945792 1.845548 -0.742431 28.563463 -2.078979 0.295564 -1.292121 1.044843 -1.074280 -6.210865 2.705312 -0.201514 13.202274 -3.420949 3.609907 -13.616536 -10.808260 -0.562201 -59.380669 17.699774 -21.811871 -30.429739 -5.000000 24.862272 -26.382702 2.927307 25.375019 0.252898 13.051228 -0.684122 59.916134 -3.937975 -6.954996 17.639444 5.000000 33.169865 19.159689 -8.716839 1.692795 20.760281 8.769365 8.268699 -0.548378 -4.680030 -0.145538 -7.457671 8.288233 -6.661431 18.930147 -11.987292 1.246796 0.672625 2.102164 0.019481 -5.757718 -14.999625 8.532624 
-0.411620 52.833050 -0.027863 -9.971952 1.904184 -0.625304 28.592426 -2.098176 0.286949 -1.253115 1.035076 -1.084044 -6.259706 2.578327 -0.192189 13.151281 -3.411636 3.492346 -13.521692 -10.903498 -0.576558 -59.509872 17.530096 -21.841782 -30.424128 -5.000000 24.994772 -26.429596 2.787350 25.313490 0.332680 13.002412 -0.693313 59.967224 -3.843472 -6.885043 17.303406 5.000000 32.966286 19.294790 -8.818898 1.945347 20.738150 8.739317 8.161223 -0.557931 -4.688523 -0.134812 -7.411499 8.224802 -6.650152 18.990656 -12.028229 1.125656 0.692518 2.106084 0.040074 -5.741570 -15.017460 8.559456 
-0.396380 52.831848 -0.032751 -9.987771 1.962817 -0.498089 28.640926 -2.117553 0.278050 -1.204515 1.025307 -1.103573 -6.328016 2.432031 -0.179947 13.109436 -3.402271 3.384536 -13.385984 -11.001042 -0.581591 -59.634602 17.350498 -21.854727 -30.416739 -5.000000 25.159592 -26.525385 2.645057 25.292700 0.410079 12.943887 -0.688093 60.038181 -3.743195 -6.829531 16.967564 5.000000 32.748482 19.489561 -8.920305 2.261948 20.715078 8.709882 8.034079 -0.558655 -4.687996 -0.115306 -7.361989 8.207145 -6.585491 19.029886 -12.047976 0.989837 0.713193 2.088897 0.051526 -5.712426 -15.105378 8.555917 
-0.381382 52.830650 -0.040508 -10.013162 2.031207 -0.371207 28.679701 -2.127616 0.272834 -1.165627 1.025305 -1.103572 -6.406453 2.274618 -0.176282 13.065252 -3.402542 3.306549 -13.250287 -11.098586 -0.586622 -59.725231 17.195330 -21.871880 -30.454782 -5.000000 25.367361 -26.659883 2.478052 25.257383 0.496889 12.856105 -0.683557 60.100994 -3.670854 -6.780956 16.681944 5.000000 32.619751 19.660606 -9.058159 2.506130 20.692011 8.681582 7.925962 -0.557836 -4.707755 -0.114850 -7.346755 8.117159 -6.583524 19.075596 -12.094184 0.866757 0.730505 2.062227 0.062303 -5.671495 -15.065946 8.587946 
-0.366747 52.829449 -0.052567 -10.038563 2.089823 -0.253737 28.728420 -2.125111 0.261892 -1.126565 1.025305 -1.103572 -6.484790 2.097893 -0.169285 13.029050 -3.383143 3.276726 -13.095067 -11.196134 -0.591653 -59.769291 17.071709 -21.880566 -30.557026 -5.000000 25.636078 -26.862743 2.295035 25.218924 0.593115 12.739063 -0.677507 60.164192 -3.595009 -6.744923 16.466932 5.000000 32.605438 19.792500 -9.244622 2.635838 20.652697 8.642650 7.835816 -0.527741 -4.711402 -0.126841 -7.385185 8.054003 -6.578151 19.091164 -12.128407 0.819425 0.779635 2.064827 0.016184 -5.652836 -15.091163 8.525546 
